<svg id="Layer_1" data-name="Layer 1" xmlns="http://www.w3.org/2000/svg" viewBox="0 0 273.06 237.05"><defs><style>.cls-1,.cls-3{fill:#fff;}.cls-2{fill:#1c3f94;}.cls-2,.cls-3{fill-rule:evenodd;}.cls-4{fill:#b30838;}</style></defs><title>logo-color</title><path class="cls-1" d="M268.11,82.2h-22A115.41,115.41,0,0,0,27,82.2H4.05v69.85h22a115.43,115.43,0,0,0,220.89,0h21.13Z"/><path class="cls-2" d="M251.64,106V97.07h-18.7l-1.77.41-1.7.49-1.71.67-1.58,1.09L225,100.88l-.76,1-.82,1.65-.54,1.74-.28,1.67-.06,1.92.54,2,1.17,2.11L237.72,125l1.09.95.41.55.06,1-1,.34-2.25-.07H221.48v11.73h22.39L246,139l1.84-1,1.16-.82,1-1.23.81-1.09.62-1.5.62-1.78.48-2.18.07-2.18-.21-2.18-.42-1.64-.74-1.78-1.09-1.35-1.51-1.57-1.22-1.1-9.56-7.17-.54-1.09.13-1.44.49-1,.61-.68.9-.33Zm-82.42-8.89H139.06v42.51h30.16v-9.68H151.49V107.77h17.73V97.06Zm-16.11,13.3h17.2v9.57h-17.2v-9.57ZM92.25,97.06H62.1v42.51H92.25v-9.68H74.52V107.77H92.25V97.06Zm-16.09,13.3H93.34v9.57H76.16v-9.57ZM202.51,106V97.07h-18.7l-1.77.41-1.71.49-1.7.67-1.56,1.09-1.23,1.16-.76,1-.81,1.65-.54,1.74-.28,1.67-.08,1.92.55,2L175.1,113,188.6,125l1.09.95.41.55.06,1-1,.34-2.26-.07H172.36v11.73h22.38l2.11-.55,1.84-1,1.16-.82,1-1.23.82-1.09.62-1.5.62-1.78.47-2.18.07-2.18-.2-2.18-.41-1.64-.76-1.78L201,120.34l-1.5-1.57-1.22-1.1-9.56-7.17-.55-1.09.14-1.44.48-1,.61-.68.9-.33Zm3.55-8.89h12.15v42.51H206.06V97.06ZM47.5,128.92v-9H41.91V110.5H59.1v25.79l-1.3.9-1.91.82-2.26.6-2.44.55-3.15.41H42.86l-3.21-.33-3.4-.84-2.4-1-3.41-1.64-2.11-1.23-1.24-1-1.83-1.91L24,130.09l-1.64-2.38-.81-1.85-.69-2.26-.28-1.91L20.48,119l.27-2.32.28-2.26.55-2.32.47-1.84.89-2.11,1.09-2,1.3-1.43,1.36-1.5,2.18-1.91,2.25-1.45,2.33-1,1.9-.76,2.25-.61,2.53-.41,2.73.08H55.68v10.49H42.45l-1.29.14-1.37.55-1.5.83-.75.8-.82,1.1L36,112.56l-.69,1.63-.27,1.25-.2,1.48-.07,2.38.07,2,.61,1.77.68,1.24.62,1.23,1.09,1.29L39,128l1.63.95,1.58.5,1.29.19,1.5-.14,1.64-.2.82-.35ZM97.31,97.06v42.1h12.41v-25l13.92,11.6V140h12.14V97.06H123.64v11.81L109.86,97.06Z"/><path class="cls-3" d="M144.28,29.73,129.89,11.25l-7.16.62-11,20.71,5.88-.52L120,27.6l15.31-1.33,3.11,4,5.87-.51Zm-11.74-7L122,23.63l4.55-8.5,6,7.58Z"/><path class="cls-4" d="M248.27,79A118.54,118.54,0,0,0,24.8,79H0v79.13H24.8a118.54,118.54,0,0,0,223.47,0h24.79V79ZM217.82,47.71,212,51.93,222.2,66,228,61.73l3.44,4.73L215.53,78l-3.43-4.73,6.84-5-10.18-14-6.83,5-3.43-4.7L214.39,43ZM200.4,79H72.68a75.58,75.58,0,0,1,5.51-7.76H194.88A75.67,75.67,0,0,1,200.4,79ZM182.8,20.34,206.86,36l-2.06,3.16-9.58-6.22-8.66,13.32-4.88-3.18,8.65-13.32-9.58-6.23Zm8.69,47H81.58a75.33,75.33,0,0,1,11-9.71h87.9A75.78,75.78,0,0,1,191.49,67.33Zm-93-13.59a74.93,74.93,0,0,1,76,0Zm58.53-41.22,5.57,1.7L158,29.41l17.65,5.39-1.1,3.61-23.22-7.1Zm-34.32-.65,7.16-.62,14.39,18.48-5.87.51-3.11-4L120,27.6l-2.37,4.46-5.88.52ZM95.31,18.46l1.84,3.31L79.5,31.55l2,3.52,12.25-6.8,1.83,3.3-12.25,6.8,2.1,3.77,18.45-10.23,1.84,3.31L82.11,48.27l-9.53-17.2ZM44.87,61.7l5.79,4.21,10.19-14-5.8-4.21L58.48,43,74.36,54.51l-3.43,4.71-6.82-5-10.19,14,6.83,5L57.33,78,41.43,66.42Zm30,127.47L70.35,186a16.23,16.23,0,0,0-3.82-10.37c-3.75-4.63-8.45-6-11.4-3.64s-2.57,7.36,1.44,12.29a14.33,14.33,0,0,0,9.18,5.53l1.42,5.2c-5.4-.75-9.45-3.25-13.4-8.11a24.2,24.2,0,0,1-5.12-10.35,9,9,0,0,1,2.83-9.07,8.51,8.51,0,0,1,8.16-1.28,22,22,0,0,1,10.14,7.4C73.84,178.63,75.51,183.68,74.9,189.17Zm26.32,30.88L79.39,209.39,88,191.74l5.24,2.55-7,14.27,16.59,8.08ZM92.6,179.43a74.75,74.75,0,0,1-11-9.71H191.48a74.24,74.24,0,0,1-11,9.71Zm81.94,3.88a75.08,75.08,0,0,1-76,0Zm-28.3,35.74c-.15,4.16-5.78,7-14.76,6.7s-14.39-3.55-14.25-7.71l.46-13,5.82.2-.42,12.38c-.09,2.4,3,4.15,8.53,4.34s8.73-1.36,8.8-3.74l.45-12.37,5.82.2Zm40-5.83-19.1,8.5-8-18,18.48-8.23a10.51,10.51,0,0,1,7.22-.66,4.45,4.45,0,0,1,2.84,2.4,4.1,4.1,0,0,1-.7,4.44c2.62,0,4.41.8,5.24,2.66C193.6,207.33,191.42,210.93,186.28,213.22ZM78.2,165.84a74.46,74.46,0,0,1-5.52-7.75H200.4a74.55,74.55,0,0,1-5.53,7.75Zm140.59,21.41A30.42,30.42,0,0,1,206,196.8l-.41-4.5A27.44,27.44,0,0,0,216,184.56c3.1-3.7,4-6.51,2.75-7.55s-3.33,1.27-6.76,5.06c-6.25,7-10.38,9.5-13.39,7s-1.8-7.67,3.78-14.31c3.77-4.5,7.56-7.49,11.27-8.95l.28,4.55a25.39,25.39,0,0,0-8.45,6.66c-3.22,3.83-4.28,6.32-3.29,7.13.52.44,1.31.21,2.42-.69,1.82-1.44,3.7-3.9,6.29-6.56,5.27-5.4,8.73-7.21,11.69-4.72C225.86,174.88,224.65,180.27,218.79,187.25ZM259.58,146H13.49V91.09H259.58Zm-133-130.84L122,23.63l10.51-.92Zm55.76,184.52c-.45-1-1.73-1.31-3.15-.67l-13.14,5.85,1.57,3.55L181,202.44A2.2,2.2,0,0,0,182.34,199.65Zm.26,6.19-13.45,6L171,215.9l13.34-6c2.15-1,3-2.19,2.44-3.4S184.6,205,182.6,205.84Z"/></svg>