<svg id="Layer_1" data-name="Layer 1" xmlns="http://www.w3.org/2000/svg" viewBox="0 0 271.71 235.88"><defs><style>.cls-1,.cls-2{fill:#ffffff;}.cls-2{fill-rule:evenodd;}</style></defs><title>logo-mono</title><path class="cls-1" d="M247,78.56a118,118,0,0,0-222.36,0H0v78.75H24.68a117.94,117.94,0,0,0,222.35,0h24.68V78.56ZM216.73,47.48,211,51.67l10.13,14,5.77-4.2,3.41,4.71L214.46,77.61,211,72.91,217.85,68,207.72,54,200.91,59l-3.4-4.69,15.81-11.48ZM199.4,78.56H72.31a76.3,76.3,0,0,1,5.49-7.71H193.91A74.75,74.75,0,0,1,199.4,78.56ZM181.88,20.24l24,15.55-2.05,3.15-9.53-6.19L185.63,46l-4.86-3.16,8.61-13.25-9.54-6.2ZM190.54,67H81.17a75.2,75.2,0,0,1,11-9.67h87.46A75.65,75.65,0,0,1,190.54,67ZM98,53.47a74.67,74.67,0,0,1,75.65,0Zm58.23-41,5.55,1.7-4.63,15.12,17.56,5.37-1.09,3.58-23.11-7.06Zm-34.14-.63,7.13-.62,14.32,18.39-5.86.51-3.09-4-15.23,1.32L117,31.91l-5.85.51ZM94.83,18.38l1.83,3.29L79.1,31.4,81,34.89l12.19-6.75,1.82,3.28L82.86,38.18l2.08,3.76,18.37-10.18,1.83,3.29L81.69,48l-9.48-17.1Zm-50.19,43,5.77,4.18L60.54,51.64l-5.77-4.2,3.41-4.69L74,54.24l-3.41,4.69L63.78,54,53.64,67.94l6.8,4.93L57,77.57,41.23,66.09ZM74.52,188.23,70,185.1a16.14,16.14,0,0,0-3.81-10.32c-3.73-4.62-8.41-6-11.34-3.63s-2.56,7.33,1.43,12.25a14.21,14.21,0,0,0,9.14,5.49l1.41,5.18c-5.37-.75-9.4-3.24-13.32-8.08a24,24,0,0,1-5.11-10.3,9,9,0,0,1,2.81-9,8.51,8.51,0,0,1,8.13-1.27,21.79,21.79,0,0,1,10.08,7.36C73.47,177.75,75.13,182.77,74.52,188.23ZM100.71,219,79,208.36l8.58-17.57,5.21,2.54-6.93,14.2,16.51,8.05Zm-8.57-40.42a74.61,74.61,0,0,1-11-9.66H190.54a75.13,75.13,0,0,1-11,9.66Zm81.53,3.86a74.63,74.63,0,0,1-75.63,0ZM145.51,218c-.15,4.14-5.75,7-14.69,6.65S116.5,221.1,116.65,217l.45-13,5.8.21-.43,12.31c-.08,2.39,3,4.13,8.49,4.32s8.69-1.35,8.77-3.72l.44-12.31,5.79.2Zm39.84-5.81-19,8.46-8-17.88,18.4-8.19a10.45,10.45,0,0,1,7.18-.65,4.43,4.43,0,0,1,2.82,2.37,4.1,4.1,0,0,1-.69,4.43c2.61,0,4.39.8,5.21,2.65C192.63,206.31,190.46,209.88,185.35,212.16ZM77.81,165a73.77,73.77,0,0,1-5.5-7.71H199.4a73.77,73.77,0,0,1-5.5,7.71Zm139.89,21.3a30.21,30.21,0,0,1-12.78,9.5l-.41-4.47a27.15,27.15,0,0,0,10.42-7.7c3.09-3.68,4-6.48,2.75-7.51s-3.33,1.26-6.73,5c-6.23,6.91-10.33,9.45-13.33,6.93s-1.79-7.62,3.76-14.23c3.75-4.47,7.52-7.45,11.22-8.92l.28,4.54a25.17,25.17,0,0,0-8.42,6.63c-3.2,3.81-4.25,6.28-3.27,7.1.51.43,1.31.2,2.41-.69,1.82-1.44,3.68-3.88,6.26-6.54,5.24-5.37,8.69-7.16,11.63-4.7C224.74,174,223.54,179.38,217.7,186.32Zm40.59-41.08H13.42V90.64H258.29ZM126,15.06l-4.53,8.46,10.45-.91Zm55.49,183.6c-.45-1-1.74-1.3-3.15-.67l-13.07,5.83,1.57,3.53,13.28-5.91A2.2,2.2,0,0,0,181.44,198.66Zm.25,6.16-13.38,6,1.81,4,13.28-5.91c2.14-.95,3-2.18,2.42-3.38S183.68,203.94,181.69,204.82Z"/><path class="cls-2" d="M251.36,105.31v-8.9H232.6l-1.78.41-1.71.48L227.4,98l-1.58,1.11-1.23,1.16-.75,1-.82,1.64-.55,1.75-.27,1.68-.07,1.91.55,2.06,1.18,2.11,13.53,12.13,1.09.94.42.57.07,1-1,.35-2.25-.07H221.1v11.77h22.46l2.13-.55,1.83-1,1.18-.82,1-1.24.82-1.09.63-1.5.62-1.78.47-2.2.07-2.19-.2-2.19-.42-1.63-.74-1.79-1.1-1.37-1.52-1.58-1.23-1.09-9.58-7.19L237,108.8l.14-1.44.48-1,.61-.69.91-.33ZM168.65,96.4H138.38v42.66h30.27v-9.71h-17.8v-22.2h17.8V96.4Zm-16.16,13.35h17.25v9.59H152.49v-9.59ZM91.41,96.4H61.15v42.66H91.41v-9.71H73.61v-22.2h17.8V96.4ZM75.25,109.75H92.5v9.59H75.25v-9.59Zm126.81-4.44v-8.9H183.3l-1.78.41-1.72.48-1.7.68-1.58,1.11-1.22,1.16-.77,1-.81,1.64-.54,1.75-.28,1.68-.08,1.91.55,2.06,1.18,2.11,13.55,12.13,1.09.94.41.57.06,1-1,.35-2.26-.07H171.8v11.77h22.46l2.12-.55,1.85-1,1.16-.82,1-1.24.82-1.09.62-1.5.62-1.78.48-2.2.06-2.19-.2-2.19-.42-1.63-.75-1.79-1.09-1.37-1.51-1.58-1.23-1.09-9.58-7.19-.56-1.09.14-1.44.48-1,.62-.69.89-.33Zm3.56-8.91h12.19v42.66H205.62V96.4Zm-159.13,32v-9H40.88v-9.45H58.13v25.88l-1.29.9-1.92.82-2.27.61-2.46.54-3.15.42h-5.2l-3.22-.34-3.42-.83-2.4-1-3.42-1.63L27.26,134,26,133l-1.86-1.92L23,129.55l-1.66-2.4-.81-1.85L19.79,123l-.27-1.91-.14-2.74.27-2.32.28-2.26.55-2.34.48-1.84.89-2.13,1.1-2,1.29-1.44,1.37-1.5,2.19-1.92,2.26-1.44,2.33-1,1.92-.76,2.25-.62,2.54-.41,2.74.07H54.71V107H41.43l-1.3.14-1.37.55-1.51.82-.76.82-.82,1.1L35,112l-.68,1.64L34,114.84l-.19,1.48-.07,2.39.07,2.06.61,1.79.68,1.23.63,1.24,1.09,1.29,1.16,1.1,1.65,1,1.58.48,1.29.2,1.51-.14,1.64-.2.82-.34Zm50-32v42.24H109v-25l14,11.65v14.23h12.18V96.4H122.91v11.85L109.07,96.4Z"/></svg>