<svg id="Layer_1" data-name="Layer 1" xmlns="http://www.w3.org/2000/svg" viewBox="0 0 232.12 64.84"><defs><style>.cls-1{fill:#fff;}</style></defs><title>logo-word</title><path class="cls-1" d="M76.12,0V40h11.8V16.27l13.22,11V40.78h11.53V0H101.14V11.22L88.05,0ZM25.66,30.27V21.72h-5.3V12.77H36.68v24.5l-1.23.85-1.82.78-2.14.58L29.17,40l-3,.39H21.26l-3.05-.32L15,39.27l-2.28-1L9.46,36.76l-2-1.17-1.17-1L4.54,32.8,3.37,31.38,1.81,29.11,1,27.36.39,25.22.13,23.4,0,20.81l.26-2.2.26-2.14L1,14.27l.45-1.75.84-2,1-1.88L4.61,7.27,5.89,5.85,8,4l2.14-1.37,2.21-1L14.13,1,16.26.4,18.67,0l2.59.08H33.43V10H20.87l-1.23.14-1.3.52-1.43.79-.71.76-.78,1.05-.64,1.43-.65,1.54-.27,1.19-.18,1.41-.07,2.26.07,1.95.58,1.68.65,1.18.58,1.16,1,1.23,1.11,1,1.55.91,1.49.47,1.24.18,1.42-.13,1.56-.19ZM185.72,0h11.54V40.39H185.72Zm-5.46,8.45V0H166.72l-2.54,0H162.5l-1.69.4-1.62.46-1.62.64-1.48,1-1.17,1.1-.72.91-.77,1.56-.51,1.66-.27,1.58-.07,1.82.52,1.94,1.12,2L167,26.58l1,.9.38.53.06,1-1,.33-2.15-.07h-13.8V40.39h21.26l2-.52,1.75-.91,1.1-.78,1-1.17.78-1,.59-1.43.58-1.68.46-2.08.06-2.07L181,26.65l-.39-1.56-.72-1.69-1-1.28-1.42-1.49-1.17-1.05-9.07-6.81-.53-1,.14-1.37.45-1,.59-.65.85-.31ZM55,12.64H71.31v9.08H55ZM70.28,0H41.63V40.39H70.28v-9.2H53.43v-21H70.28Zm61,12.64h16.32v9.08H131.24ZM146.53,0H117.88V40.39h28.65v-9.2H129.69v-21h16.84Zm84.59,8.45V0H217.58l-2.53,0h-1.69l-1.69.4-1.61.46-1.63.64-1.5,1-1.15,1.1-.72.91-.78,1.56-.51,1.66-.26,1.58-.07,1.82L204,13.1l1.11,2,12.82,11.47,1.05.9.38.53.06,1-1,.33-2.14-.07h-13.8V40.39h21.26l2-.52,1.75-.91,1.1-.78,1-1.17.77-1,.59-1.43.59-1.68.46-2.08.06-2.07-.2-2.07-.39-1.56-.71-1.69-1-1.28-1.43-1.49-1.16-1.05L218,12.77l-.51-1,.12-1.37.46-1,.58-.65.86-.31Z"/><polygon class="cls-1" points="38.88 51.29 41.51 51.29 41.51 56.17 49.3 56.17 49.3 51.29 51.93 51.29 51.93 63.84 49.3 63.84 49.3 58.14 41.51 58.14 41.51 63.84 38.88 63.84 38.88 51.29"/><polygon class="cls-1" points="54.49 51.29 65.38 51.29 65.38 53.26 57.12 53.26 57.12 56.42 65.05 56.42 65.05 58.39 57.12 58.39 57.12 61.87 65.52 61.87 65.52 63.84 54.49 63.84 54.49 51.29"/><path class="cls-1" d="M75.32,58.76l-2.14-5.29L71,58.76Zm-3.67-7.47h3.12l5.59,12.54H77.43l-1.32-3.1h-5.9l-1.3,3.1H66.06Z"/><polygon class="cls-1" points="81.48 51.29 84.11 51.29 84.11 61.76 91.74 61.76 91.74 63.84 81.48 63.84 81.48 51.29"/><polygon class="cls-1" points="94.67 53.26 89.96 53.26 89.96 51.29 102.01 51.29 102.01 53.26 97.3 53.26 97.3 63.84 94.67 63.84 94.67 53.26"/><polygon class="cls-1" points="103.29 51.29 105.92 51.29 105.92 56.17 113.71 56.17 113.71 51.29 116.34 51.29 116.34 63.84 113.71 63.84 113.71 58.14 105.92 58.14 105.92 63.84 103.29 63.84 103.29 51.29"/><path class="cls-1" d="M135.39,55.93c-.26-1.9-1.82-3-4-3-2.42,0-4.23,1.61-4.23,4.88a4.22,4.22,0,0,0,4.41,4.43A3.6,3.6,0,0,0,135.39,59h2.85c-.37,2.49-2,5.15-7.17,5.15-4.53,0-6.69-3.1-6.69-6.63s2.07-6.62,7-6.62c4.32,0,6.57,2.28,6.85,5Z"/><polygon class="cls-1" points="140.36 51.29 142.99 51.29 142.99 61.76 150.62 61.76 150.62 63.84 140.36 63.84 140.36 51.29"/><path class="cls-1" d="M152,51.29h2.63v7.08c0,1.74.07,3.85,3.5,3.85s3.51-2.11,3.51-3.85V51.29h2.64v7.15c0,2.07-.07,5.75-6.15,5.75S152,60.51,152,58.44Z"/><path class="cls-1" d="M169.33,61.87h4.73c1.18,0,2.37-.23,2.37-1.85,0-1.16-.8-1.77-2-1.77h-5.12Zm0-5.48h4.92c.74,0,1.71-.18,1.71-1.6,0-1-.63-1.53-2.16-1.53h-4.47Zm-2.63-5.1H175c2.87,0,3.6,1.53,3.6,3.13a2.56,2.56,0,0,1-1.7,2.62,3,3,0,0,1,2.28,3.11c0,1.4-.87,3.68-4.27,3.68h-8.2Z"/><path class="cls-1" d="M186.2,50.94c1.93,0,5.79.35,6.13,4h-2.85c-.09-1-1-2-3.16-2-1.76,0-2.92.54-2.92,1.72,0,2.95,9.35.12,9.35,5.48,0,3.23-3.36,4.08-6,4.08-4.51,0-6.32-1.78-6.36-4.41h2.85c.07,1.65,1.44,2.44,3.6,2.44,1.6,0,3.09-.48,3.09-1.85,0-3.11-9.24-.4-9.24-5.55,0-2.79,2.48-3.88,5.54-3.88"/></svg>